<svg xmlns="http://www.w3.org/2000/svg" xmlns:xlink="http://www.w3.org/1999/xlink" viewBox="0 0 2100 2100"><defs><style>.cls-1{isolation:isolate;}.cls-2,.cls-5{fill:#0178d7;}.cls-2,.cls-4{stroke:#004bb3;}.cls-17,.cls-18,.cls-19,.cls-2,.cls-20,.cls-4,.cls-5{stroke-miterlimit:10;}.cls-2{stroke-width:47.38px;}.cls-3{fill:url(#radial-gradient);}.cls-4{fill:#000155;stroke-width:28.43px;}.cls-5{stroke:#bceeff;stroke-width:18.95px;}.cls-6{mix-blend-mode:lighten;}.cls-12,.cls-6{opacity:0.75;}.cls-7{fill:url(#radial-gradient-2);}.cls-10,.cls-11,.cls-13,.cls-14,.cls-8,.cls-9{mix-blend-mode:screen;}.cls-8{fill:url(#radial-gradient-3);}.cls-9{fill:url(#radial-gradient-4);}.cls-10{fill:url(#radial-gradient-5);}.cls-11{fill:url(#radial-gradient-6);}.cls-13{fill:url(#radial-gradient-7);}.cls-14{fill:url(#radial-gradient-8);}.cls-15{fill:#4ac7ff;}.cls-16{mix-blend-mode:color-dodge;}.cls-16,.cls-20{opacity:0.7;}.cls-17,.cls-18,.cls-19{stroke-width:27px;}.cls-17{fill:url(#New_Gradient_Swatch_1);stroke:url(#New_Gradient_Swatch_1-2);}.cls-18{fill:url(#New_Gradient_Swatch_1-3);stroke:url(#New_Gradient_Swatch_1-4);}.cls-19{fill:url(#New_Gradient_Swatch_1-5);stroke:url(#New_Gradient_Swatch_1-6);}.cls-20{stroke-width:48px;mix-blend-mode:soft-light;fill:url(#New_Gradient_Swatch_1-7);stroke:url(#New_Gradient_Swatch_1-8);}</style><radialGradient id="radial-gradient" cx="1051.71" cy="1053.17" fx="243.26778208485916" fy="798.1700748431929" r="1556.07" gradientTransform="translate(276.48 2458.64) rotate(-110.18) scale(1 1.15)" gradientUnits="userSpaceOnUse"><stop offset="0.19" stop-color="#fff" stop-opacity="0.5"/><stop offset="0.24" stop-color="#cee5f7" stop-opacity="0.5"/><stop offset="0.32" stop-color="#8fc4ed" stop-opacity="0.5"/><stop offset="0.41" stop-color="#5ba8e5" stop-opacity="0.5"/><stop offset="0.51" stop-color="#3393df" stop-opacity="0.5"/><stop offset="0.63" stop-color="#1783da" stop-opacity="0.5"/><stop offset="0.77" stop-color="#067bd8" stop-opacity="0.5"/><stop offset="1" stop-color="#0178d7" stop-opacity="0.5"/></radialGradient><radialGradient id="radial-gradient-2" cx="1315.31" cy="853.14" r="185.16" gradientUnits="userSpaceOnUse"><stop offset="0.01" stop-color="#fff"/><stop offset="0.12" stop-color="#f9fdff" stop-opacity="0.83"/><stop offset="0.34" stop-color="#eef8fe" stop-opacity="0.54"/><stop offset="0.53" stop-color="#e5f5fd" stop-opacity="0.31"/><stop offset="0.7" stop-color="#def2fc" stop-opacity="0.14"/><stop offset="0.83" stop-color="#daf1fc" stop-opacity="0.04"/><stop offset="0.9" stop-color="#d9f0fc" stop-opacity="0"/></radialGradient><radialGradient id="radial-gradient-3" cx="1700.68" cy="853.14" r="129.21" gradientTransform="translate(87.94) scale(0.97 1)" xlink:href="#radial-gradient-2"/><radialGradient id="radial-gradient-4" cx="889.82" cy="840.26" r="185.16" xlink:href="#radial-gradient-2"/><radialGradient id="radial-gradient-5" cx="649.96" cy="853.14" r="185.16" xlink:href="#radial-gradient-2"/><radialGradient id="radial-gradient-6" cx="1594.2" cy="255.68" r="116.76" gradientTransform="translate(432.22 109.67) scale(0.76 0.77)" xlink:href="#radial-gradient-2"/><radialGradient id="radial-gradient-7" cx="963.25" cy="1390.06" r="139.58" xlink:href="#radial-gradient-2"/><radialGradient id="radial-gradient-8" cx="1290.03" cy="1390.06" r="139.58" xlink:href="#radial-gradient-2"/><radialGradient id="New_Gradient_Swatch_1" cx="1106.81" cy="804.22" r="550" gradientUnits="userSpaceOnUse"><stop offset="0" stop-color="#fff"/><stop offset="0.07" stop-color="#e1e1e1"/><stop offset="0.21" stop-color="#a6a6a6"/><stop offset="0.36" stop-color="#737373"/><stop offset="0.5" stop-color="#4a4a4a"/><stop offset="0.64" stop-color="#2a2a2a"/><stop offset="0.77" stop-color="#131313"/><stop offset="0.89" stop-color="#050505"/><stop offset="1"/></radialGradient><radialGradient id="New_Gradient_Swatch_1-2" cx="1106.81" cy="804.22" r="563.5" xlink:href="#New_Gradient_Swatch_1"/><radialGradient id="New_Gradient_Swatch_1-3" cx="1370.76" cy="1087.18" r="334.31" xlink:href="#New_Gradient_Swatch_1"/><radialGradient id="New_Gradient_Swatch_1-4" cx="1370.76" cy="1087.18" r="347.54" xlink:href="#New_Gradient_Swatch_1"/><radialGradient id="New_Gradient_Swatch_1-5" cx="483.69" cy="1087.17" r="225.58" xlink:href="#New_Gradient_Swatch_1"/><radialGradient id="New_Gradient_Swatch_1-6" cx="483.69" cy="1087.17" r="238.9" xlink:href="#New_Gradient_Swatch_1"/><radialGradient id="New_Gradient_Swatch_1-7" cx="1052" cy="1051" r="1020.23" xlink:href="#New_Gradient_Swatch_1"/><radialGradient id="New_Gradient_Swatch_1-8" cx="1052" cy="1051" r="1044.23" xlink:href="#New_Gradient_Swatch_1"/></defs><g class="cls-1"><g id="Layer_1" data-name="Layer 1"><circle class="cls-2" cx="1052" cy="1051" r="1020.23"/><circle class="cls-3" cx="1051.71" cy="1053.17" r="983.96"/><path class="cls-4" d="M1663.7,337.77c0,12.32-9.47,36.86-10,37.81-.29.66-174.83,313-176.44,315.74q-132.63,229.54-265,459.3c-29.75,51.54-59.32,103.28-89.45,154.55-33.54,57-113.62,55.62-143.09-1.42-14.4-28-31.17-54.68-47-81.88-31.27-53.82-62.73-107.55-95-163-3.5,5.87-6.16,10.14-8.71,14.5q-67.53,115.56-135,231.21c-24.16,41-69.27,54.11-107.36,31.84-36.58-21.32-47.66-68.23-24.64-108q104.05-179.81,209-359c7-11.85,17.25-23.69,28.81-30.8,39.61-24.16,85.09-11.46,109.35,29.57,36.11,61,71.45,122.62,107.18,183.83,11.65,20.09,23.5,40.08,36.86,62.83,112.1-194.07,222.78-385.58,333.17-576.71,31.56-56.38,135.22-239.46,136.45-241.64a76.49,76.49,0,0,1,140.91,41.32Z"/><path class="cls-4" d="M1765.6,904.54a76.73,76.73,0,0,1-9.39,37q-60.48,105.14-121.1,210.11c-29.62,51.32-59.09,102.78-89,153.8-33.43,56.74-113.19,55.28-142.37-1.47-14.37-27.7-31.08-54.39-46.92-81.37-31.08-53.66-62.31-107.18-94.42-162.31-3.52,5.87-6.16,10.12-8.65,14.37-44.87,76.83-89.44,153.51-134.45,230.2-24,40.76-68.91,53.8-106.89,31.66-36.36-21.11-47.5-67.88-24.48-107.47Q1091.51,1050,1196,871.7c6.89-11.88,17.15-23.61,28.74-30.64,39.29-24,84.6-11.44,108.79,29.32,35.92,60.85,71.11,122,106.59,183,11.73,20.09,23.46,39.88,36.8,62.61q70.81-122.51,140.91-244c2.19-3.81,4.39-7.77,6.74-11.58a77.44,77.44,0,0,1,141,44.13Z"/><path class="cls-4" d="M668.45,906.28a76.19,76.19,0,0,1-6.82,31.92l-8.52,14.72L449.68,1302.3c-.78,1.24-1.4,2.32-2.33,3.57,0,.15,0,.15-.15.3a129.48,129.48,0,0,1-10.69,14.88,78.89,78.89,0,0,1-137.58-52.84,76.54,76.54,0,0,1,4.64-26.65l14.72-25.25L516.61,875.76l6.51-11.15c2.32-3.88,4.8-7.44,7.28-11a78.79,78.79,0,0,1,59-26.5C633,827.11,668.45,862.75,668.45,906.28Z"/><path class="cls-5" d="M1339.6,1433.65a58.82,58.82,0,0,1-5.27,24.69l-6.59,11.39-157.42,270.35c-.6,1-1.08,1.8-1.8,2.76,0,.12,0,.12-.12.24a99.74,99.74,0,0,1-8.27,11.51,61,61,0,0,1-106.46-40.89,59.2,59.2,0,0,1,3.6-20.62l11.39-19.54L1222.11,1410l5-8.63c1.8-3,3.72-5.76,5.63-8.51a61.14,61.14,0,0,1,106.82,40.76Z"/><path class="cls-5" d="M1169.62,1686.74l-54.23-90.87c-10.33-17.59-19.4-32.9-28.48-48.45-27.45-47.19-54.68-94.5-82.48-141.59-18.72-31.54-53.77-41.29-84.18-22.69-9,5.45-16.91,14.53-22.24,23.72q-81.16,137.84-161,276.48c-17.81,30.63-9.19,66.82,19,83.16,29.38,17.13,64.1,7,82.71-24.51q14-23.64,27.68-47.42h165.75c9.19,15.43,18.38,30.86,26.67,46.74,22.57,43.91,84.29,45,110.16,1.14C1186.18,1711.48,1169.62,1686.74,1169.62,1686.74ZM935.34,1576.58c2.38-4.2,4.88-8.51,7.37-12.71,1.93-3.29,4-6.58,6.7-11.11,4.65,7.94,9.3,16,13.84,23.82Z"/><g class="cls-6"><circle class="cls-7" cx="1315.31" cy="853.14" r="185.16"/></g><g class="cls-6"><ellipse class="cls-8" cx="1744.18" cy="853.14" rx="125.84" ry="129.21"/></g><g class="cls-6"><circle class="cls-9" cx="889.82" cy="840.26" r="185.16"/></g><g class="cls-6"><circle class="cls-10" cx="649.96" cy="853.14" r="185.16"/></g><g class="cls-6"><ellipse class="cls-11" cx="1640.09" cy="306.56" rx="88.46" ry="89.91"/></g><g class="cls-12"><circle class="cls-13" cx="963.25" cy="1390.06" r="139.58"/><circle class="cls-14" cx="1290.03" cy="1390.06" r="139.58"/></g><path class="cls-15" d="M1393.61,1185.4c-1.53,0-2.76,1.78-2.76,3.89s1.23,4,2.76,4,2.73-1.75,2.73-3.89S1395.14,1185.4,1393.61,1185.4Z"/><path class="cls-15" d="M982.52,1109.57a2.13,2.13,0,0,0,.83-2.44c-.25-1-1-1.59-1.74-1.29a2.31,2.31,0,0,0-.85,2.55C981,1109.35,981.79,1110,982.52,1109.57Z"/><path class="cls-15" d="M624.72,1254c-1.63.85-2.54,3.4-2,5.7s2.4,3.59,4,2.86,2.48-3.41,1.94-5.74S626.4,1253.21,624.72,1254Z"/><path class="cls-15" d="M1359.83,1031.57a1.86,1.86,0,0,0-1.43-2c-.81,0-1.39.93-1.39,2s.54,2,1.35,2S1359.75,1032.7,1359.83,1031.57Z"/><path class="cls-15" d="M1040.35,1191.71c-.46-1.92-2-3.08-3.41-2.36S1040.84,1193.74,1040.35,1191.71Z"/><path class="cls-15" d="M896.18,932.89c-.62-2.41-2.39-3.67-4.13-2.88s-2.63,3.49-2,5.9,2.43,3.73,4.13,2.91S896.76,935.36,896.18,932.89Z"/><path class="cls-15" d="M1346,1259.47c.13.44.44.71.83.6a1.09,1.09,0,0,0,.35-1.2c-.08-.44-.45-.77-.78-.55A1,1,0,0,0,1346,1259.47Z"/><path class="cls-15" d="M811,1047c-.15-.54-.58-.87-1-.65a1.26,1.26,0,0,0-.46,1.42c.15.5.61.83,1,.66A1.29,1.29,0,0,0,811,1047Z"/><path class="cls-15" d="M1187.12,954.21c.11.58.58.85,1,.66a1.29,1.29,0,0,0,.51-1.4c-.2-.63-.62-1-1.05-.74A1.35,1.35,0,0,0,1187.12,954.21Z"/><path class="cls-15" d="M1660.1,931.08c.47,0,.89-.55.89-1.2a1.18,1.18,0,0,0-.89-1.27,1.15,1.15,0,0,0-.89,1.27C1659.21,930.53,1659.6,931.08,1660.1,931.08Z"/><path class="cls-15" d="M1457.38,1175c-1.47,0-2.67,1.73-2.71,3.79s1.2,3.78,2.71,3.84,2.68-1.73,2.68-3.84S1458.85,1175,1457.38,1175Z"/><path class="cls-15" d="M1744.18,922.47c0,.79.42,1.48,1,1.48a1.38,1.38,0,0,0,1-1.48c0-.77-.41-1.4-1-1.37S1744.16,921.7,1744.18,922.47Z"/><path class="cls-15" d="M1672.68,893.17c-.58,0-1,.63-1,1.37s.46,1.42,1,1.42,1-.65,1-1.42S1673.14,893.17,1672.68,893.17Z"/><path class="cls-15" d="M1535.21,1073.19c-1.17,0-2.16,1.43-2.16,3.13s1,3.07,2.16,3.13,2.21-1.43,2.21-3.13S1536.45,1073.19,1535.21,1073.19Z"/><path class="cls-15" d="M1633.18,1025.07a1.07,1.07,0,0,0-.71,1.1c0,.63.31,1.1.71,1.1s.76-.47.76-1.1A1.05,1.05,0,0,0,1633.18,1025.07Z"/><path class="cls-15" d="M1718.42,908.89c-1.62,0-2.94,1.94-2.94,4.19s1.32,4.29,2.94,4.29,3-1.87,3-4.23S1720.08,908.92,1718.42,908.89Z"/><path class="cls-15" d="M1662.36,1043c2.46,0,4.45-2.85,4.45-6.39s-2-6.31-4.43-6.31-4.46,2.86-4.5,6.31S1659.85,1043,1662.36,1043Z"/><path class="cls-15" d="M1720.8,951.82c0,.58.31,1.1.77,1.1s.75-.52.75-1.1-.32-1.07-.75-1.07S1720.8,951.22,1720.8,951.82Z"/><path class="cls-15" d="M661,862.33c.13.58.58.88.92.69a1.26,1.26,0,0,0,.5-1.37c-.13-.64-.58-.85-.94-.69A1.15,1.15,0,0,0,661,862.33Z"/><path class="cls-15" d="M810.89,1041.59a1.69,1.69,0,0,0,.66-1.92c-.18-.83-.78-1.24-1.36-1a1.89,1.89,0,0,0-.63,2C809.73,1041.42,810.33,1041.86,810.89,1041.59Z"/><path class="cls-15" d="M727.89,1060.55c-.15-.55-.58-.88-1-.66a1.3,1.3,0,0,0-.47,1.43c.16.5.62.82,1,.66A1.31,1.31,0,0,0,727.89,1060.55Z"/><path class="cls-15" d="M484.86,1053.83c-.16-.55-.58-.87-1-.66a1.28,1.28,0,0,0-.46,1.43c.15.5.62.82,1,.66A1.31,1.31,0,0,0,484.86,1053.83Z"/><path class="cls-15" d="M727.74,1055.17a1.66,1.66,0,0,0,.65-1.91c-.17-.83-.77-1.24-1.35-1a1.91,1.91,0,0,0-.64,2C726.58,1055,727.18,1055.45,727.74,1055.17Z"/><path class="cls-15" d="M571.68,997.36a1.69,1.69,0,0,0,.66-1.92c-.18-.83-.78-1.24-1.36-1a1.89,1.89,0,0,0-.63,2C570.52,997.19,571.12,997.63,571.68,997.36Z"/><path class="cls-15" d="M846,976.4c0,1.15.66,2.14,1.51,2.14S846,975.22,846,976.4Z"/><path class="cls-15" d="M1287.64,985.21c1.93,0,3.48-2.3,3.48-5s-1.55-5-3.48-5-3.52,2.22-3.52,5S1285.67,985.16,1287.64,985.21Z"/><path class="cls-15" d="M1318.67,973.2c1.86,0,3.37-2.15,3.33-4.78s-1.47-4.83-3.33-4.83-3.36,2.14-3.36,4.89C1315.27,971,1316.78,973.25,1318.67,973.2Z"/><path class="cls-15" d="M1271.49,939.73c0,1.86,1.08,3.45,2.45,3.45s2.47-1.59,2.51-3.51-1.1-3.54-2.51-3.54S1271.5,937.72,1271.49,939.73Z"/><path class="cls-15" d="M1175.36,1058c-2.38,1.15-3.63,4.8-2.86,8.17s3.4,5.08,5.76,4,3.59-4.77,2.8-8.09S1177.73,1056.92,1175.36,1058Z"/><path class="cls-15" d="M1396.09,1084c-2.38,1.16-3.64,4.8-2.86,8.18s3.4,5.07,5.76,4,3.59-4.77,2.8-8.09S1398.46,1082.94,1396.09,1084Z"/><path class="cls-15" d="M1342.21,1089.43c.27,1.16,1.2,1.78,2,1.43a2.63,2.63,0,0,0,1-2.85c-.28-1.16-1.2-1.82-2-1.35A2.46,2.46,0,0,0,1342.21,1089.43Z"/><path class="cls-15" d="M1422.56,1189.05c-1.74.82-2.67,3.48-2.07,6.06s2.49,3.78,4.23,3,2.71-3.59,2.13-6.06S1424.31,1188.22,1422.56,1189.05Z"/><path class="cls-15" d="M1345.55,1106.61c.18.63.64,1,1.09.82a1.56,1.56,0,0,0,.52-1.65c-.14-.54-.64-.93-1.09-.66S1345.44,1106,1345.55,1106.61Z"/><path class="cls-15" d="M1143.9,1171.88c.17.63.64,1,1.08.82a1.51,1.51,0,0,0,.52-1.64c-.13-.55-.63-.94-1.08-.66S1143.78,1171.25,1143.9,1171.88Z"/><path class="cls-15" d="M1004.49,1133.6c-1.29.58-2,2.58-1.51,4.5.41,1.76,1.8,2.8,3.1,2.2s2-2.64,1.54-4.45S1005.84,1133,1004.49,1133.6Z"/><path class="cls-15" d="M1233.47,997.36c-1.08,0-2,1.29-2,2.9s.93,2.8,2,2.86,2-1.32,2-2.86S1234.59,997.36,1233.47,997.36Z"/><path class="cls-15" d="M1463.64,1204.19c0,.52.29.9.64.9s.61-.38.61-.9-.25-.91-.61-.91A.77.77,0,0,0,1463.64,1204.19Z"/><path class="cls-15" d="M1456.68,1150.39c0-.68-.38-1.26-.85-1.26s-.91.58-.91,1.26.41,1.21.87,1.21S1456.68,1151.08,1456.68,1150.39Z"/><path class="cls-15" d="M1491.77,1160.08c.7,0,1.22-.88,1.22-1.79s-.48-1.78-1.24-1.81-1.21.77-1.21,1.76S1491.08,1160.08,1491.77,1160.08Z"/><path class="cls-15" d="M1166.48,1003.4c.27,1.23,1.24,1.92,2.13,1.45a2.55,2.55,0,0,0,1-2.93c-.29-1.27-1.2-2-2.11-1.57A2.73,2.73,0,0,0,1166.48,1003.4Z"/><path class="cls-15" d="M1352.64,947c0-.71-.36-1.26-.9-1.26s-.89.55-.87,1.26.36,1.32.88,1.32S1352.64,947.68,1352.64,947Z"/><path class="cls-15" d="M1637.36,935.47c1.51,0,2.74-1.75,2.74-3.84s-1.23-3.84-2.74-3.84-2.71,1.7-2.71,3.84S1635.89,935.47,1637.36,935.47Z"/><path class="cls-15" d="M1456.39,1217.17c-1.16,0-2.14,1.37-2.18,3.12s1,3.08,2.18,3.08,2.22-1.38,2.22-3.08S1457.65,1217.17,1456.39,1217.17Z"/><path class="cls-15" d="M1102.83,1125.16c-1.16,0-2.14,1.37-2.18,3.13s1,3.07,2.18,3.07,2.22-1.37,2.22-3.07S1104.09,1125.16,1102.83,1125.16Z"/><path class="cls-15" d="M771.85,1083.9c-1.16,0-2.14,1.38-2.18,3.13s1,3.07,2.18,3.07,2.22-1.37,2.22-3.07S773.11,1083.9,771.85,1083.9Z"/><path class="cls-15" d="M1688,939c-3.84-.05-7,4.45-7,9.93s3.11,10,7,10,7-4.52,7-9.9C1695,943.43,1692,938.93,1688,939Z"/><path class="cls-15" d="M1564.45,1183.31c0,1.27.68,2.25,1.53,2.28s1.58-1,1.56-2.22-.69-2.23-1.56-2.23S1564.45,1182.11,1564.45,1183.31Z"/><path class="cls-15" d="M788.86,950.67c2.14-1.08,3.18-4.39,2.47-7.3s-3-4.66-5.12-3.65S783,944,783.67,947,786.71,951.75,788.86,950.67Z"/><path class="cls-15" d="M855.18,848.39a2.67,2.67,0,0,0-1,3c.31,1.29,1.24,2,2.14,1.62a2.91,2.91,0,0,0,1.05-3.17C857.06,848.7,856.09,847.92,855.18,848.39Z"/><path class="cls-15" d="M715.86,1130.39c-.38-1.58-1.57-2.53-2.71-2a3.67,3.67,0,0,0-1.38,4c.43,1.65,1.62,2.43,2.81,1.92S716.29,1132.08,715.86,1130.39Z"/><path class="cls-15" d="M518.92,1058.1c-.38-1.58-1.57-2.53-2.71-2a3.67,3.67,0,0,0-1.38,4c.43,1.65,1.62,2.43,2.81,1.92S519.35,1059.79,518.92,1058.1Z"/><path class="cls-15" d="M1474.51,1295.13c2-1,3.11-4.19,2.42-7s-3-4.46-5-3.51-3,4.12-2.38,7S1472.44,1296.11,1474.51,1295.13Z"/><path class="cls-15" d="M961.48,1066c.76,2.91,2.95,4.53,5.09,3.52s3.24-4.33,2.53-7.27-3-4.56-5.1-3.54S960.77,1062.94,961.48,1066Z"/><path class="cls-15" d="M1098,1220.61c.47,2,1.9,3,3.35,2.33S1097.52,1218.69,1098,1220.61Z"/><path class="cls-15" d="M479.52,1124.65c-2.37,0-4.28,2.84-4.28,6.18s1.91,6.12,4.28,6.18,4.33-2.73,4.33-6.18S482,1124.72,479.52,1124.65Z"/><path class="cls-15" d="M685,1181.19c-2.38,0-4.28,2.84-4.28,6.19s1.9,6.11,4.28,6.18,4.33-2.74,4.33-6.18S687.47,1181.26,685,1181.19Z"/><path class="cls-15" d="M441.32,1139.48c-2.29-.1-4.15,2.57-4.1,5.84s1.81,5.91,4.1,5.91,4.14-2.56,4.14-5.94C445.5,1142.12,443.65,1139.38,441.32,1139.48Z"/><path class="cls-15" d="M553.7,953.37c2.93-1.42,4.48-5.94,3.53-10.07s-4.19-6.28-7.09-4.89-4.43,5.84-3.46,10S550.78,954.65,553.7,953.37Z"/><path class="cls-15" d="M894.63,1086.82c1.66-.81,2.57-3.27,2-5.77-.57-2.3-2.36-3.58-4-2.77s-2.59,3.34-2,5.74S893,1087.6,894.63,1086.82Z"/><path class="cls-15" d="M515.12,954.65c1.33,0,2.52-1.55,2.52-3.51s-1.14-3.48-2.52-3.51-2.53,1.58-2.48,3.51S513.73,954.65,515.12,954.65Z"/><path class="cls-15" d="M399.49,1171.7a1.31,1.31,0,0,0,1.12,1.52c.66,0,1.09-.7,1.07-1.52s-.45-1.62-1.09-1.62S399.49,1170.82,399.49,1171.7Z"/><path class="cls-15" d="M395.64,1226.69c2.23,0,4.09-2.63,4.09-5.87s-1.86-5.78-4.09-5.78-4,2.63-4,5.78S393.35,1226.69,395.64,1226.69Z"/><path class="cls-15" d="M1466.55,487.06c.47,0,.89-.55.89-1.21a1.17,1.17,0,0,0-.89-1.26,1.15,1.15,0,0,0-.89,1.26C1465.66,486.51,1466.05,487.06,1466.55,487.06Z"/><path class="cls-15" d="M1550.63,478.45c0,.79.43,1.48,1,1.48a1.37,1.37,0,0,0,1-1.48c0-.77-.4-1.4-1-1.37S1550.61,477.68,1550.63,478.45Z"/><path class="cls-15" d="M1570.54,428.7c0,.8.43,1.48,1,1.48s1-.68,1-1.48-.4-1.4-1-1.37S1570.52,427.94,1570.54,428.7Z"/><path class="cls-15" d="M1479.13,449.15c-.58,0-1,.63-1,1.37s.46,1.42,1,1.42,1-.65,1-1.42S1479.6,449.15,1479.13,449.15Z"/><path class="cls-15" d="M1556.3,333.37c-.58,0-1,.63-1,1.37s.46,1.43,1,1.43,1-.66,1-1.43S1556.77,333.37,1556.3,333.37Z"/><path class="cls-15" d="M1439.64,581.05a1.07,1.07,0,0,0-.72,1.1c0,.63.31,1.1.72,1.1s.75-.47.75-1.1A1.05,1.05,0,0,0,1439.64,581.05Z"/><path class="cls-15" d="M1524.87,464.87c-1.62,0-2.93,1.94-2.93,4.19s1.31,4.28,2.93,4.28,3-1.86,3-4.22S1526.53,464.89,1524.87,464.87Z"/><path class="cls-15" d="M1468.81,599c2.46,0,4.45-2.85,4.45-6.39s-2-6.31-4.43-6.31-4.46,2.86-4.5,6.31S1466.3,599,1468.81,599Z"/><path class="cls-15" d="M1527.25,507.8c0,.58.31,1.1.77,1.1s.76-.52.76-1.1-.33-1.07-.76-1.07S1527.25,507.2,1527.25,507.8Z"/><path class="cls-15" d="M1443.81,491.45c1.51,0,2.74-1.76,2.74-3.84s-1.23-3.84-2.74-3.84-2.71,1.7-2.71,3.84S1442.34,491.45,1443.81,491.45Z"/><path class="cls-15" d="M1557.21,393c1.51,0,2.75-1.76,2.75-3.84s-1.24-3.85-2.75-3.85-2.7,1.71-2.7,3.85S1555.74,393,1557.21,393Z"/><path class="cls-15" d="M1494.48,495c-3.85,0-7,4.45-7,9.93s3.11,10,7,10,7-4.52,7-9.9C1501.49,499.41,1498.4,494.91,1494.48,495Z"/><path class="cls-15" d="M1370.9,739.29c0,1.26.68,2.25,1.53,2.28s1.58-1,1.56-2.22-.69-2.23-1.56-2.23S1370.9,738.09,1370.9,739.29Z"/><path class="cls-15" d="M1355.74,657.89c-1.53,0-2.77,1.79-2.77,3.9s1.24,4,2.77,4,2.72-1.76,2.72-3.9S1357.26,657.89,1355.74,657.89Z"/><path class="cls-15" d="M1419.5,647.47c-1.47,0-2.66,1.73-2.7,3.78s1.2,3.79,2.7,3.85,2.69-1.73,2.69-3.85S1421,647.47,1419.5,647.47Z"/><path class="cls-15" d="M1384.68,661.54c-1.74.82-2.66,3.49-2.07,6.07s2.5,3.78,4.24,3,2.7-3.6,2.12-6.07S1386.44,660.72,1384.68,661.54Z"/><path class="cls-15" d="M1425.76,676.69c0,.52.29.9.64.9s.62-.38.62-.9-.25-.91-.62-.91S1425.73,676.19,1425.76,676.69Z"/><path class="cls-15" d="M1418.81,622.89c0-.69-.39-1.26-.85-1.26s-.91.57-.91,1.26.4,1.2.87,1.2S1418.81,623.57,1418.81,622.89Z"/><path class="cls-15" d="M1418.52,689.66c-1.16,0-2.15,1.38-2.19,3.13s1,3.07,2.19,3.07,2.22-1.37,2.22-3.07S1419.77,689.66,1418.52,689.66Z"/><path class="cls-15" d="M1042.79,1278.56a2.13,2.13,0,0,0,.83-2.44c-.25-1-1-1.59-1.74-1.29a2.29,2.29,0,0,0-.85,2.55C1041.26,1278.34,1042.05,1279,1042.79,1278.56Z"/><path class="cls-15" d="M1064.76,1302.59c-1.3.58-2,2.58-1.51,4.5.41,1.76,1.8,2.8,3.09,2.2s2-2.63,1.55-4.45S1066.11,1302,1064.76,1302.59Z"/><path class="cls-15" d="M1137.15,1136.36c.76,2.9,2.95,4.52,5.09,3.51s3.24-4.32,2.52-7.26-3-4.56-5.09-3.55S1136.44,1133.32,1137.15,1136.36Z"/><g class="cls-16"><path class="cls-17" d="M1663.7,337.77c0,12.32-9.47,36.86-10,37.81-.29.66-174.83,313-176.44,315.74q-132.63,229.54-265,459.3c-29.75,51.54-59.32,103.28-89.45,154.55-33.54,57-113.62,55.62-143.09-1.42-14.4-28-31.17-54.68-47-81.88-31.27-53.82-62.73-107.55-95-163-3.5,5.87-6.16,10.14-8.71,14.5q-67.53,115.56-135,231.21c-24.16,41-69.27,54.11-107.36,31.84-36.58-21.32-47.66-68.23-24.64-108q104.05-179.81,209-359c7-11.85,17.25-23.69,28.81-30.8,39.61-24.16,85.09-11.46,109.35,29.57,36.11,61,71.45,122.62,107.18,183.83,11.65,20.09,23.5,40.08,36.86,62.83,112.1-194.07,222.78-385.58,333.17-576.71,31.56-56.38,135.22-239.46,136.45-241.64a76.49,76.49,0,0,1,140.91,41.32Z"/><path class="cls-18" d="M1765.6,904.54a76.73,76.73,0,0,1-9.39,37q-60.48,105.14-121.1,210.11c-29.62,51.32-59.09,102.78-89,153.8-33.43,56.74-113.19,55.28-142.37-1.47-14.37-27.7-31.08-54.39-46.92-81.37-31.08-53.66-62.31-107.18-94.42-162.31-3.52,5.87-6.16,10.12-8.65,14.37-44.87,76.83-89.44,153.51-134.45,230.2-24,40.76-68.91,53.8-106.89,31.66-36.36-21.11-47.5-67.88-24.48-107.47Q1091.51,1050,1196,871.7c6.89-11.88,17.15-23.61,28.74-30.64,39.29-24,84.6-11.44,108.79,29.32,35.92,60.85,71.11,122,106.59,183,11.73,20.09,23.46,39.88,36.8,62.61q70.81-122.51,140.91-244c2.19-3.81,4.39-7.77,6.74-11.58a77.44,77.44,0,0,1,141,44.13Z"/><path class="cls-19" d="M668.45,906.28a76.19,76.19,0,0,1-6.82,31.92l-8.52,14.72L449.68,1302.3c-.78,1.24-1.4,2.32-2.33,3.57,0,.15,0,.15-.15.3a129.48,129.48,0,0,1-10.69,14.88,78.89,78.89,0,0,1-137.58-52.84,76.54,76.54,0,0,1,4.64-26.65l14.72-25.25L516.61,875.76l6.51-11.15c2.32-3.88,4.8-7.44,7.28-11a78.79,78.79,0,0,1,59-26.5C633,827.11,668.45,862.75,668.45,906.28Z"/></g><circle class="cls-20" cx="1052" cy="1051" r="1020.23"/></g></g></svg>