<svg xmlns="http://www.w3.org/2000/svg" xmlns:xlink="http://www.w3.org/1999/xlink" viewBox="0 0 2100 2100"><defs><style>.cls-1{isolation:isolate;}.cls-2{fill:#fff;stroke-width:56.56px;}.cls-2,.cls-3{stroke:#004bb3;stroke-miterlimit:10;}.cls-3{fill:#000155;stroke-width:24.61px;}.cls-4{fill:#4ac7ff;}.cls-11,.cls-13,.cls-15,.cls-17,.cls-19,.cls-5,.cls-7,.cls-9{mix-blend-mode:color-dodge;opacity:0.7;}.cls-5{fill:url(#radial-gradient);}.cls-10,.cls-12,.cls-14,.cls-16,.cls-18,.cls-20,.cls-6,.cls-8{mix-blend-mode:screen;}.cls-6{fill:url(#radial-gradient-2);}.cls-7{fill:url(#radial-gradient-3);}.cls-8{fill:url(#radial-gradient-4);}.cls-9{fill:url(#radial-gradient-5);}.cls-10{fill:url(#radial-gradient-6);}.cls-11{fill:url(#radial-gradient-7);}.cls-12{fill:url(#radial-gradient-8);}.cls-13{fill:url(#radial-gradient-9);}.cls-14{fill:url(#radial-gradient-10);}.cls-15{fill:url(#radial-gradient-11);}.cls-16{fill:url(#radial-gradient-12);}.cls-17{fill:url(#radial-gradient-13);}.cls-18{fill:url(#radial-gradient-14);}.cls-19{fill:url(#radial-gradient-15);}.cls-20{fill:url(#radial-gradient-16);}</style><radialGradient id="radial-gradient" cx="1836.06" cy="694.99" r="102.85" gradientTransform="matrix(2.38, 0.29, -0.47, 2.29, -2864.74, -1185.65)" gradientUnits="userSpaceOnUse"><stop offset="0" stop-color="#fff"/><stop offset="0.07" stop-color="#e1e1e1"/><stop offset="0.21" stop-color="#a6a6a6"/><stop offset="0.36" stop-color="#737373"/><stop offset="0.5" stop-color="#4a4a4a"/><stop offset="0.64" stop-color="#2a2a2a"/><stop offset="0.77" stop-color="#131313"/><stop offset="0.89" stop-color="#050505"/><stop offset="1"/></radialGradient><radialGradient id="radial-gradient-2" cx="1241.43" cy="881.81" r="185.16" gradientUnits="userSpaceOnUse"><stop offset="0.01" stop-color="#fff"/><stop offset="0.12" stop-color="#f9fdff" stop-opacity="0.83"/><stop offset="0.34" stop-color="#eef8fe" stop-opacity="0.54"/><stop offset="0.53" stop-color="#e5f5fd" stop-opacity="0.31"/><stop offset="0.7" stop-color="#def2fc" stop-opacity="0.14"/><stop offset="0.83" stop-color="#daf1fc" stop-opacity="0.04"/><stop offset="0.9" stop-color="#d9f0fc" stop-opacity="0"/></radialGradient><radialGradient id="radial-gradient-3" cx="1743.56" cy="706.68" r="102.85" xlink:href="#radial-gradient"/><radialGradient id="radial-gradient-4" cx="1015.92" cy="881.81" r="185.16" xlink:href="#radial-gradient-2"/><radialGradient id="radial-gradient-5" cx="1994.04" cy="690.08" r="102.85" xlink:href="#radial-gradient"/><radialGradient id="radial-gradient-6" cx="1619.59" cy="916.21" r="185.16" xlink:href="#radial-gradient-2"/><radialGradient id="radial-gradient-7" cx="2175.66" cy="638.58" r="102.85" gradientTransform="matrix(1.38, 0.17, -0.27, 1.34, -955.29, -358.2)" xlink:href="#radial-gradient"/><radialGradient id="radial-gradient-8" cx="1978.94" cy="863.47" r="185.16" gradientTransform="translate(432.22) scale(0.76 1)" xlink:href="#radial-gradient-2"/><radialGradient id="radial-gradient-9" cx="1642.1" cy="739.61" r="102.85" xlink:href="#radial-gradient"/><radialGradient id="radial-gradient-10" cx="759.18" cy="927.8" r="185.16" xlink:href="#radial-gradient-2"/><radialGradient id="radial-gradient-11" cx="1542.35" cy="765.5" r="102.85" xlink:href="#radial-gradient"/><radialGradient id="radial-gradient-12" cx="509.78" cy="958.17" r="185.16" xlink:href="#radial-gradient-2"/><radialGradient id="radial-gradient-13" cx="985.99" cy="859.56" r="102.85" gradientTransform="matrix(1.38, 0.17, -0.27, 1.34, -955.29, -358.2)" xlink:href="#radial-gradient"/><radialGradient id="radial-gradient-14" cx="-271.9" cy="958.17" r="185.16" gradientTransform="translate(432.22) scale(0.76 1)" xlink:href="#radial-gradient-2"/><radialGradient id="radial-gradient-15" cx="2003.54" cy="378.9" r="102.85" gradientTransform="matrix(1.38, 0.17, -0.27, 1.34, -955.29, -358.2)" xlink:href="#radial-gradient"/><radialGradient id="radial-gradient-16" cx="1757.48" cy="485.03" r="185.16" gradientTransform="translate(432.22) scale(0.76 1)" xlink:href="#radial-gradient-2"/></defs><g class="cls-1"><g id="Layer_2" data-name="Layer 2"><path class="cls-2" d="M2038.11,816.48c-26.24-83.7-14.12-50.13-67.11-193C1809.7,276.7,1458.08,36.41,1050.46,36.41c-560.52,0-1014.9,454.37-1014.9,1015s454.38,1014.9,1014.9,1014.9,1015-454.38,1015-1014.9A1015,1015,0,0,0,2038.11,816.48Z"/><path class="cls-3" d="M1817.35,608.31s-82.77,148.14-84.16,150.51q-114.82,198.75-229.47,397.66c-25.76,44.63-51.36,89.42-77.45,133.8-29,49.39-98.36,48.16-123.88-1.23-12.47-24.2-27-47.33-40.69-70.88-27.07-46.6-54.31-93.12-82.2-141.11-3,5.09-5.34,8.78-7.55,12.55q-58.46,100-116.91,200.18c-20.92,35.53-60,46.85-92.95,27.57-31.67-18.46-41.27-59.07-21.33-93.53q90.08-155.67,181-310.85c6.07-10.26,14.93-20.51,24.94-26.66,34.29-20.92,73.67-9.93,94.67,25.59,31.26,52.84,61.86,106.16,92.79,159.16,10.09,17.39,20.35,34.7,31.92,54.4,97-168,192.87-333.83,288.45-499.31,27.32-48.81,48-85.29,49.09-87.17C1771.46,425.75,1874.85,511.16,1817.35,608.31Z"/><path class="cls-3" d="M1982.55,943.43a66.57,66.57,0,0,1-8.12,32q-52.37,91-104.85,181.91c-25.65,44.43-51.16,89-77.06,133.16-28.94,49.12-98,47.85-123.25-1.27-12.44-24-26.92-47.1-40.63-70.46-26.91-46.45-53.94-92.79-81.74-140.52-3.05,5.08-5.34,8.76-7.49,12.44C1500.56,1157.2,1462,1223.59,1423,1290c-20.82,35.29-59.66,46.58-92.54,27.42-31.48-18.28-41.13-58.78-21.2-93.05q89.68-155,180.13-309.35c6-10.29,14.85-20.44,24.88-26.53,34-20.82,73.25-9.9,94.19,25.39,31.1,52.68,61.57,105.61,92.29,158.42,10.15,17.39,20.31,34.53,31.86,54.2q61.31-106.07,122-211.23c1.9-3.3,3.81-6.73,5.84-10a67,67,0,0,1,122.11,38.21Z"/><path class="cls-3" d="M1024.77,944.94a65.9,65.9,0,0,1-5.9,27.63l-7.38,12.75L835.37,1287.8c-.68,1.07-1.21,2-2,3.09,0,.13,0,.13-.13.26A110.58,110.58,0,0,1,824,1304a68.29,68.29,0,0,1-119.11-45.74,66.28,66.28,0,0,1,4-23.07l12.74-21.87,171.7-294.84,5.64-9.66c2-3.35,4.16-6.43,6.3-9.52a68.41,68.41,0,0,1,119.52,45.61Z"/><path class="cls-3" d="M754.66,1057c-6.12,12.17-15.81,29.29-26.16,46.85-13.19,22.52-27.33,45.92-36.15,61.15-22.74,39.42-45.4,79-68.43,118.28-13,22.08-35.27,32.72-56.92,32.06h-.07c-21.5,1.1-43.8-9.47-56.77-32.06-20.7-36.22-41-72.66-61.51-109-21,36.37-41.9,72.81-63,109a64.65,64.65,0,0,1-25.5,24.7,52.82,52.82,0,0,1-6.56,3.06,60,60,0,0,1-7.43,2.41,56.57,56.57,0,0,1-7.73,1.45c-1.31.15-2.62.3-3.94.37a34.43,34.43,0,0,1-3.93.15c-1.31,0-2.55-.08-3.79-.15-19-1.53-37.6-12.1-49.12-32C255.16,1244,233,1204.38,210.86,1165c-15.31-27.11-47.16-80.09-60.86-108-34.68-70.91,62.46-123.17,100.57-58.67.37.58.73,1.24,1.1,2,.65,1.16,1.31,2.33,1.89,3.57,3.21,5.54,6.05,10.56,8.67,15.08,3.5,6.2,6.56,11.52,9.19,16.18,19.09,33.82,38.69,68.65,51,90.22,22.66-39,49.19-84.53,72.44-123.89a72.87,72.87,0,0,1,5.25-7.79,15.88,15.88,0,0,1,1.67-2.26A63.1,63.1,0,0,1,417,977.88c22.81-13.92,48.17-11.87,67.27,3.36a11.87,11.87,0,0,1,1.53,1.31,71.94,71.94,0,0,1,14.86,17.85c24.49,41.47,48.54,83,72.66,124.62,16.84-26.38,49.56-77.54,75.28-121.19C685.14,931,791.17,984.08,754.66,1057Z"/></g><g id="Layer_1" data-name="Layer 1"><path class="cls-4" d="M1650.94,1203c-1.3,0-2.35,1.52-2.35,3.31s1.05,3.36,2.35,3.36,2.31-1.49,2.31-3.31S1652.23,1203,1650.94,1203Z"/><path class="cls-4" d="M1301.65,1138.6a1.82,1.82,0,0,0,.71-2.08c-.21-.86-.85-1.35-1.48-1.1a2,2,0,0,0-.72,2.17C1300.36,1138.41,1301,1138.94,1301.65,1138.6Z"/><path class="cls-4" d="M1084.6,1007.78c-1.38.72-2.15,2.89-1.67,4.85s2,3,3.43,2.42,2.1-2.89,1.64-4.87S1086,1007.13,1084.6,1007.78Z"/><path class="cls-4" d="M1622.24,1072.33a1.6,1.6,0,0,0-1.22-1.71c-.69,0-1.18.8-1.18,1.71s.46,1.7,1.15,1.7S1622.17,1073.28,1622.24,1072.33Z"/><path class="cls-4" d="M1350.79,1208.38c-.39-1.63-1.69-2.61-2.9-2S1351.2,1210.11,1350.79,1208.38Z"/><path class="cls-4" d="M1228.3,988.48c-.53-2.05-2-3.12-3.52-2.45s-2.23,3-1.74,5,2.07,3.17,3.52,2.47S1228.79,990.58,1228.3,988.48Z"/><path class="cls-4" d="M1610.5,1266c.11.37.38.6.7.51a.93.93,0,0,0,.3-1c-.06-.37-.38-.65-.66-.46A.85.85,0,0,0,1610.5,1266Z"/><path class="cls-4" d="M1156,1085.4c-.13-.46-.49-.74-.86-.56a1.1,1.1,0,0,0-.39,1.21c.13.42.52.7.82.56A1.11,1.11,0,0,0,1156,1085.4Z"/><path class="cls-4" d="M1475.49,1006.59c.1.49.49.73.85.56a1.09,1.09,0,0,0,.43-1.19c-.16-.53-.52-.81-.88-.63A1.17,1.17,0,0,0,1475.49,1006.59Z"/><path class="cls-4" d="M1877.36,986.94c.4,0,.76-.46.76-1a1,1,0,0,0-.76-1.08,1,1,0,0,0-.75,1.08C1876.61,986.48,1876.94,986.94,1877.36,986.94Z"/><path class="cls-4" d="M1705.12,1194.16c-1.25,0-2.27,1.47-2.3,3.22s1,3.22,2.3,3.27,2.28-1.48,2.28-3.27S1706.37,1194.16,1705.12,1194.16Z"/><path class="cls-4" d="M1948.8,979.62c0,.68.36,1.26.85,1.26s.84-.58.84-1.26-.34-1.19-.84-1.16S1948.78,979,1948.8,979.62Z"/><path class="cls-4" d="M1888.05,954.73a1.06,1.06,0,0,0-.89,1.16c0,.66.4,1.21.86,1.21s.82-.55.82-1.21S1888.44,954.73,1888.05,954.73Z"/><path class="cls-4" d="M1771.25,1107.68c-1,0-1.84,1.22-1.84,2.66s.84,2.61,1.84,2.66,1.87-1.21,1.87-2.66S1772.3,1107.68,1771.25,1107.68Z"/><path class="cls-4" d="M1854.49,1066.8a.92.92,0,0,0-.61.93c0,.54.27.94.61.94s.64-.4.64-.94A.89.89,0,0,0,1854.49,1066.8Z"/><path class="cls-4" d="M1926.91,968.08c-1.38,0-2.49,1.66-2.49,3.57s1.11,3.64,2.49,3.64,2.53-1.59,2.53-3.59S1928.32,968.11,1926.91,968.08Z"/><path class="cls-4" d="M1879.28,1082c2.09,0,3.78-2.42,3.78-5.43s-1.68-5.36-3.76-5.36-3.79,2.42-3.83,5.36S1877.15,1082,1879.28,1082Z"/><path class="cls-4" d="M1928.93,1004.56c0,.49.27.94.66.94s.64-.45.64-.94-.28-.91-.64-.91S1928.93,1004.05,1928.93,1004.56Z"/><path class="cls-4" d="M1028.47,928.53c.11.49.49.74.79.58a1.06,1.06,0,0,0,.42-1.16c-.11-.54-.49-.73-.8-.59A1,1,0,0,0,1028.47,928.53Z"/><path class="cls-4" d="M1155.83,1080.83a1.42,1.42,0,0,0,.55-1.63c-.14-.7-.65-1-1.15-.86a1.63,1.63,0,0,0-.54,1.7C1154.84,1080.69,1155.35,1081.07,1155.83,1080.83Z"/><path class="cls-4" d="M1185.64,1025.45c0,1,.56,1.82,1.28,1.82S1185.64,1024.45,1185.64,1025.45Z"/><path class="cls-4" d="M1560.9,948c1.64,0,2.95-2,2.95-4.27s-1.31-4.22-2.95-4.26-3,1.88-3,4.26S1559.22,947.92,1560.9,948Z"/><path class="cls-4" d="M1587.27,937.76c1.57,0,2.85-1.82,2.82-4.06s-1.25-4.1-2.82-4.1-2.86,1.82-2.86,4.15C1584.38,935.92,1585.66,937.8,1587.27,937.76Z"/><path class="cls-4" d="M1547.17,909.32c0,1.59.92,2.94,2.09,2.94s2.1-1.35,2.13-3-.93-3-2.13-3S1547.19,907.62,1547.17,909.32Z"/><path class="cls-4" d="M1509.71,1066.19c-2,1-3.09,4.08-2.43,7s2.89,4.31,4.89,3.36,3-4.06,2.38-6.88S1511.73,1065.26,1509.71,1066.19Z"/><path class="cls-4" d="M1607.26,1121.49c.23,1,1,1.51,1.68,1.21a2.24,2.24,0,0,0,.85-2.43c-.23-1-1-1.54-1.67-1.14A2.1,2.1,0,0,0,1607.26,1121.49Z"/><path class="cls-4" d="M1675.53,1206.12c-1.48.7-2.26,3-1.75,5.15s2.11,3.22,3.59,2.52,2.3-3,1.81-5.15S1677,1205.42,1675.53,1206.12Z"/><path class="cls-4" d="M1610.11,1136.08c.14.53.54.88.91.7a1.3,1.3,0,0,0,.45-1.4c-.12-.47-.54-.79-.92-.56S1610,1135.54,1610.11,1136.08Z"/><path class="cls-4" d="M1320.32,1159c-1.1.49-1.69,2.19-1.28,3.83s1.53,2.37,2.63,1.86,1.71-2.24,1.31-3.78S1321.47,1158.5,1320.32,1159Z"/><path class="cls-4" d="M1536.34,1065.26c-.92,0-1.74,1.1-1.74,2.47s.78,2.38,1.74,2.43,1.74-1.12,1.7-2.43S1537.29,1065.26,1536.34,1065.26Z"/><path class="cls-4" d="M1710.44,1219c0,.44.24.77.54.77s.52-.33.52-.77-.21-.77-.52-.77A.65.65,0,0,0,1710.44,1219Z"/><path class="cls-4" d="M1704.53,1173.28c0-.58-.33-1.07-.73-1.07s-.77.49-.77,1.07.35,1,.74,1S1704.53,1173.86,1704.53,1173.28Z"/><path class="cls-4" d="M1734.34,1181.51c.59,0,1-.75,1-1.52s-.41-1.51-1.05-1.54-1,.66-1,1.5S1733.75,1181.51,1734.34,1181.51Z"/><path class="cls-4" d="M1458,1048.39c.23,1,1,1.63,1.8,1.23a2.16,2.16,0,0,0,.84-2.49c-.25-1.08-1-1.68-1.79-1.33A2.3,2.3,0,0,0,1458,1048.39Z"/><path class="cls-4" d="M1616.13,915.52c0-.6-.31-1.07-.77-1.07s-.76.47-.74,1.07.31,1.12.75,1.12A1.07,1.07,0,0,0,1616.13,915.52Z"/><path class="cls-4" d="M1858,990.67c1.28,0,2.33-1.49,2.33-3.26s-1-3.27-2.33-3.27-2.3,1.45-2.3,3.27S1856.79,990.67,1858,990.67Z"/><path class="cls-4" d="M1704.28,1230c-1,0-1.82,1.17-1.85,2.66s.86,2.61,1.85,2.61,1.89-1.16,1.89-2.61S1705.35,1230,1704.28,1230Z"/><path class="cls-4" d="M1901.09,993.66c-3.27,0-5.95,3.77-5.93,8.43s2.64,8.46,5.93,8.46,6-3.84,6-8.41S1904.42,993.61,1901.09,993.66Z"/><path class="cls-4" d="M1796.09,1201.25c0,1.07.58,1.91,1.3,1.93s1.35-.86,1.33-1.88-.59-1.89-1.33-1.89S1796.09,1200.23,1796.09,1201.25Z"/><path class="cls-4" d="M1137.11,1003.58c1.82-.91,2.7-3.73,2.1-6.2s-2.51-4-4.35-3.1-2.75,3.62-2.16,6.18S1135.29,1004.5,1137.11,1003.58Z"/><path class="cls-4" d="M1193.46,916.68a2.27,2.27,0,0,0-.87,2.59c.27,1.09,1.05,1.66,1.82,1.37a2.48,2.48,0,0,0,.89-2.7C1195.06,916.94,1194.23,916.28,1193.46,916.68Z"/><path class="cls-4" d="M1075.09,1156.29c-.32-1.35-1.34-2.15-2.31-1.69a3.1,3.1,0,0,0-1.17,3.38c.37,1.41,1.38,2.07,2.39,1.64A2.9,2.9,0,0,0,1075.09,1156.29Z"/><path class="cls-4" d="M1460.69,1077.74c1.7-.86,2.65-3.56,2.06-5.91s-2.5-3.79-4.22-3-2.59,3.5-2,6S1458.93,1078.57,1460.69,1077.74Z"/><path class="cls-4" d="M1301.77,1227.06c-.28-1-1.09-1.69-1.86-1.26a2.38,2.38,0,0,0-.93,2.61c.26,1.09,1.09,1.66,1.88,1.26A2.24,2.24,0,0,0,1301.77,1227.06Z"/><path class="cls-4" d="M712.75,1054.55c2.3,0,4.12-2.58,4.12-5.83s-1.82-5.88-4.12-5.88-4.08,2.58-4.08,5.88S710.45,1054.55,712.75,1054.55Z"/><path class="cls-4" d="M1283.78,1101.56c.65,2.47,2.51,3.84,4.32,3s2.75-3.68,2.15-6.18-2.55-3.87-4.33-3S1283.17,1099,1283.78,1101.56Z"/><path class="cls-4" d="M484.65,1103.4c-.48,0-.93.6-.93,1.32a1.21,1.21,0,0,0,.93,1.29c.53,0,.93-.58.93-1.29S485.18,1103.4,484.65,1103.4Z"/><path class="cls-4" d="M396.7,1112.47c0-.87-.44-1.56-1.05-1.56s-1,.69-1,1.56.42,1.43,1,1.43S396.72,1113.21,396.7,1112.47Z"/><path class="cls-4" d="M641.94,1076.76c0-.8-.48-1.43-1-1.43s-1,.63-1,1.43.44,1.44,1,1.47S641.94,1077.57,641.94,1076.76Z"/><path class="cls-4" d="M471.49,1143.09a1.31,1.31,0,0,0,1.1-1.44c0-.83-.49-1.46-1.06-1.46s-1,.63-1,1.46S471,1143.09,471.49,1143.09Z"/><path class="cls-4" d="M366.22,1037.48c0-1-.57-1.7-1.21-1.7s-1.22.75-1.18,1.7.53,1.69,1.18,1.69S366.22,1038.42,366.22,1037.48Z"/><path class="cls-4" d="M221.91,1159.47c1.07,0,1.86-1.2,1.86-2.64s-.79-2.69-1.86-2.64-1.8,1.15-1.8,2.64S220.92,1159.44,221.91,1159.47Z"/><path class="cls-4" d="M520.31,1183c1.11,0,2-1.27,2-2.87s-.91-2.87-2-2.87-2,1.32-2,2.87S519.2,1183,520.31,1183Z"/><path class="cls-4" d="M423.65,1126.64c1.69-.05,3.07-2,3.07-4.39s-1.38-4.45-3.07-4.5-3.12,2-3.12,4.42S421.91,1126.59,423.65,1126.64Z"/><path class="cls-4" d="M421.16,1081.7c0-.57-.32-1.09-.81-1.09s-.79.52-.79,1.09.35,1.15.79,1.15S421.16,1082.39,421.16,1081.7Z"/><path class="cls-4" d="M1399.73,1232.94c.4,1.67,1.61,2.59,2.85,2S1399.36,1231.31,1399.73,1232.94Z"/><path class="cls-4" d="M874.28,1151.41c-2,0-3.64,2.41-3.64,5.25s1.62,5.19,3.64,5.25,3.68-2.32,3.68-5.25S876.34,1151.47,874.28,1151.41Z"/><path class="cls-4" d="M841.82,1164c-1.94-.09-3.52,2.18-3.48,5s1.54,5,3.48,5,3.51-2.18,3.51-5C845.37,1166.25,843.8,1163.92,841.82,1164Z"/><path class="cls-4" d="M937.31,1005.88c2.49-1.21,3.8-5,3-8.55s-3.56-5.34-6-4.17-3.76,5-2.94,8.47S934.82,1007,937.31,1005.88Z"/><path class="cls-4" d="M1227,1119.27c1.41-.69,2.18-2.79,1.7-4.91-.49-1.95-2-3-3.44-2.35s-2.21,2.84-1.74,4.88S1225.56,1119.93,1227,1119.27Z"/><path class="cls-4" d="M904.52,1007c1.13,0,2.14-1.32,2.14-3s-1-3-2.14-3-2.14,1.35-2.1,3S903.35,1007,904.52,1007Z"/><path class="cls-4" d="M806.28,1191.39a1.11,1.11,0,0,0,1,1.29c.57,0,.93-.6.91-1.29s-.38-1.38-.93-1.38S806.28,1190.64,806.28,1191.39Z"/><path class="cls-4" d="M508.45,1098.8c-1.58,0-2.88,1.9-2.88,4.08s1.3,4,2.88,4,2.83-1.81,2.83-4S510,1098.8,508.45,1098.8Z"/><path class="cls-4" d="M455.44,1095.16c4,0,7.32-4.68,7.3-10.36s-3.25-10.45-7.3-10.45-7.33,4.71-7.33,10.39S451.34,1095.19,455.44,1095.16Z"/><path class="cls-4" d="M803,1238.11c1.9,0,3.47-2.24,3.47-5s-1.57-4.91-3.47-4.91-3.4,2.23-3.4,4.91S801.07,1238.11,803,1238.11Z"/><path class="cls-4" d="M-1,1177.09c0,.64.4,1.12.89,1.15a1,1,0,0,0,.81-1.15c0-.68-.37-1.17-.85-1.2S-.93,1176.41-1,1177.09Z"/><path class="cls-4" d="M664.6,1124.23c-2.43-.06-4.49,2.87-4.45,6.37s2,6.46,4.49,6.46,4.49-2.87,4.53-6.46C669.13,1127.16,667.15,1124.23,664.6,1124.23Z"/><path class="cls-4" d="M1712.91,609.68c.4,0,.76-.47.76-1a1,1,0,0,0-.76-1.07,1,1,0,0,0-.75,1.07C1712.16,609.21,1712.49,609.68,1712.91,609.68Z"/><path class="cls-4" d="M1784.35,602.36c0,.67.36,1.26.85,1.26a1.17,1.17,0,0,0,.84-1.26c0-.65-.34-1.19-.84-1.17S1784.33,601.71,1784.35,602.36Z"/><path class="cls-4" d="M1723.6,577.46c-.49,0-.88.54-.88,1.17s.39,1.21.85,1.21.82-.56.82-1.21S1724,577.46,1723.6,577.46Z"/><path class="cls-4" d="M1690,689.54a.9.9,0,0,0-.6.93c0,.54.26.93.6.93s.64-.39.64-.93A.88.88,0,0,0,1690,689.54Z"/><path class="cls-4" d="M1762.46,590.82c-1.37,0-2.49,1.66-2.49,3.57s1.12,3.63,2.49,3.63,2.53-1.58,2.53-3.59S1763.88,590.84,1762.46,590.82Z"/><path class="cls-4" d="M1714.83,704.76c2.09,0,3.78-2.43,3.78-5.43s-1.67-5.36-3.76-5.36-3.79,2.42-3.83,5.36S1712.7,704.76,1714.83,704.76Z"/><path class="cls-4" d="M1764.48,627.3c0,.49.27.93.66.93s.64-.44.64-.93-.28-.91-.64-.91S1764.48,626.79,1764.48,627.3Z"/><path class="cls-4" d="M1693.59,613.41c1.28,0,2.33-1.49,2.33-3.26s-1.05-3.27-2.33-3.27-2.3,1.45-2.3,3.27S1692.34,613.41,1693.59,613.41Z"/><path class="cls-4" d="M1736.64,616.39c-3.27,0-5.94,3.78-5.93,8.44s2.65,8.46,5.93,8.46,6-3.84,6-8.41S1740,616.34,1736.64,616.39Z"/><path class="cls-4" d="M1631.64,824c0,1.07.58,1.91,1.3,1.93s1.35-.86,1.33-1.89-.59-1.88-1.33-1.88S1631.64,823,1631.64,824Z"/><path class="cls-4" d="M1618.76,754.83c-1.3,0-2.35,1.51-2.35,3.31s1,3.35,2.35,3.35,2.31-1.49,2.31-3.31S1620.05,754.83,1618.76,754.83Z"/><path class="cls-4" d="M1672.94,746c-1.25,0-2.27,1.47-2.3,3.22s1,3.21,2.3,3.26,2.28-1.47,2.28-3.26S1674.19,746,1672.94,746Z"/><path class="cls-4" d="M1643.35,757.93c-1.48.7-2.26,3-1.76,5.15s2.12,3.21,3.6,2.51,2.3-3.05,1.81-5.15S1644.84,757.23,1643.35,757.93Z"/><path class="cls-4" d="M1678.26,770.79c0,.45.24.77.54.77s.52-.32.52-.77-.21-.76-.52-.76A.64.64,0,0,0,1678.26,770.79Z"/><path class="cls-4" d="M1672.35,725.08c0-.58-.33-1.07-.73-1.07s-.77.49-.77,1.07.35,1,.74,1S1672.35,725.67,1672.35,725.08Z"/><path class="cls-4" d="M1672.1,781.82c-1,0-1.82,1.17-1.86,2.66s.87,2.61,1.86,2.61,1.89-1.17,1.89-2.61S1673.17,781.82,1672.1,781.82Z"/><path class="cls-5" d="M1424.45,963.37c26.46-129.88-61.65-248.43-196.78-264.83S961.53,774.1,935,904s61.65,248.45,196.79,264.86S1397.94,1093.24,1424.45,963.37Z"/><circle class="cls-6" cx="1241.43" cy="881.81" r="185.16"/><path class="cls-7" d="M1198.94,963.37c26.46-129.88-61.65-248.43-196.78-264.83S736,774.1,709.53,904s61.65,248.45,196.79,264.86S1172.43,1093.24,1198.94,963.37Z"/><circle class="cls-8" cx="1015.92" cy="881.81" r="185.16"/><path class="cls-9" d="M1802.61,997.77C1829.07,867.89,1741,749.35,1605.83,733S1339.7,808.5,1313.2,938.37s61.65,248.45,196.8,264.85S1776.1,1127.65,1802.61,997.77Z"/><circle class="cls-10" cx="1619.59" cy="916.21" r="185.16"/><path class="cls-11" d="M2023.55,888.12c15.36-76.39-35.87-146.12-114.43-155.77S1754.4,776.75,1739,853.13s35.87,146.13,114.44,155.79S2008.15,964.5,2023.55,888.12Z"/><ellipse class="cls-12" cx="1931.59" cy="863.47" rx="140.29" ry="185.16"/><path class="cls-13" d="M942.2,1009.36c26.45-129.89-61.65-248.43-196.78-264.83S479.28,820.09,452.79,950s61.65,248.45,196.79,264.86S915.69,1139.23,942.2,1009.36Z"/><circle class="cls-14" cx="759.18" cy="927.8" r="185.16"/><path class="cls-15" d="M692.81,1039.73C719.26,909.85,631.16,791.3,496,774.9S229.89,850.46,203.39,980.32s61.66,248.45,196.8,264.86S666.3,1169.6,692.81,1039.73Z"/><circle class="cls-16" cx="509.78" cy="958.17" r="185.16"/><path class="cls-17" d="M318.17,982.82C333.54,906.43,282.3,836.7,203.74,827S49,871.45,33.64,947.82,69.51,1094,148.08,1103.62,302.77,1059.2,318.17,982.82Z"/><ellipse class="cls-18" cx="226.22" cy="958.17" rx="140.29" ry="185.16"/><path class="cls-19" d="M1855.75,509.67c15.37-76.38-35.87-146.11-114.43-155.77s-154.71,44.41-170.1,120.78,35.87,146.13,114.44,155.79S1840.36,586.05,1855.75,509.67Z"/><ellipse class="cls-20" cx="1763.8" cy="485.03" rx="140.29" ry="185.16"/></g></g></svg>